<svg xmlns="http://www.w3.org/2000/svg" width="487.89" height="370.649" viewBox="0 0 487.89 370.649">
    <defs>
        <filter id="패스_6698" width="487.89" height="370.328" x="0" y=".321" filterUnits="userSpaceOnUse">
            <feOffset dx="10" dy="10"/>
            <feGaussianBlur result="blur" stdDeviation="10"/>
            <feFlood flood-opacity=".149"/>
            <feComposite in2="blur" operator="in"/>
            <feComposite in="SourceGraphic"/>
        </filter>
        <style>
            .cls-2{fill:#fff}.cls-4{fill:#1127fe}
        </style>
    </defs>
    <g id="about_textbox" transform="translate(-237.5 -1647.776)">
        <g id="about_textbox-2">
            <g filter="url(#패스_6698)" transform="translate(237.5 1647.78)">
                <path id="패스_6698-2" fill="#fff" stroke="#1127fe" stroke-width="4px" d="M20 0h383.89a20 20 0 0 1 20 20v266.328a20 20 0 0 1-20 20H20a20 20 0 0 1-20-20V20A20 20 0 0 1 20 0z" transform="translate(22 22.32)"/>
            </g>
            <path id="사각형_8057" d="M0 0H64V48H0z" class="cls-2" transform="translate(621 1932)"/>
            <path id="사각형_8058" d="M0 0H64V46H0z" class="cls-2" transform="translate(255 1667)"/>
        </g>
        <path id="사각형_8001" fill="none" d="M0 0H91.209V75.793H0z" transform="translate(616.459 1931.631)"/>
        <path id="패스_6660" d="M279.1 1907.811v9.5c-7.81 1.267-11.821 5.488-11.821 13.932v3.8h9.5v25.121h-20.058V1932.3c0-15.412 7.388-22.59 22.379-24.489zm33.352 0v9.5c-7.6 1.267-11.821 5.488-11.821 13.932v3.8h9.71v25.121h-20.268V1932.3c0-15.412 7.599-22.59 22.375-24.489z" class="cls-4" transform="translate(-6.004 -260.035)"/>
        <path id="패스_6699" d="M645.786 2266.162v-9.5c7.6-1.055 11.61-5.277 11.61-13.72v-4.011h-9.71v-25.12h20.054v27.653c0 15.62-7.388 23.009-21.954 24.698zm33.352 0v-9.5c7.6-1.055 11.611-5.277 11.611-13.72v-4.011h-9.711v-25.12H701.3v27.653c0 15.62-7.6 23.009-22.162 24.698z" class="cls-4" transform="translate(-9.785 -272.035)"/>
    </g>
</svg>
