<svg xmlns="http://www.w3.org/2000/svg" width="62" height="60" viewBox="0 0 62 60">
    <defs>
        <style>
            .cls-1{opacity:.2;mix-blend-mode:multiply;isolation:isolate}.cls-2{fill:#1c58ff}
        </style>
    </defs>
    <g id="logo" transform="translate(-232 -13)">
        <g id="그룹_18234">
            <g id="그룹_18233">
                <path id="패스_6650" d="M255.4 42.965a10.036 10.036 0 1 1 7.836 9.8l-4.458-1.635a4.2 4.2 0 1 1-3.283-4.108z" class="cls-2"/>
            </g>
        </g>
        <g id="그룹_18236">
            <g id="그룹_18235">
                <path id="패스_6651" d="M275.8 43.333a10.036 10.036 0 1 1-7.836-9.8l4.458 1.635a4.2 4.2 0 1 1 3.283 4.107z" class="cls-2"/>
            </g>
        </g>
        <g id="그룹_18238">
            <g id="그룹_18237">
                <circle id="타원_535" cx="3.4" cy="3.4" r="3.4" class="cls-2" transform="translate(280.599 25.369)"/>
            </g>
        </g>
        <g id="그룹_18240">
            <g id="그룹_18239">
                <path id="패스_6652" fill="#fff" d="M252.736 23.535a2.753 2.753 0 0 1 2.752-2.753h.162a2.754 2.754 0 0 1 2.753 2.753v8.4l.048-.032a12.685 12.685 0 0 1 7.015-2.09c.126 0 .516.041.586.045a12.759 12.759 0 0 1 5.063 1.345l.118.06a2.753 2.753 0 0 1-2.208 5.034c-.294-.11-.585-.223-.885-.315a15.169 15.169 0 0 0-1.78-.46 7.013 7.013 0 0 0-6.109 2l-.188.2a7.205 7.205 0 1 0 12.537 3.985l-.027-.19a2.753 2.753 0 0 1 5.468-.638l.023.149a12.71 12.71 0 1 1-25.324 1z"/>
            </g>
        </g>
    </g>
</svg>
